# xmcd
#
# Track frame offsets: 
#        150
#        11959
#        23760
#        36042
#        48495
#        62285
#        73857
#        86555
#        104130
#        115332
#        128842
#        141532
#        156240
#        165855
#        184642
#        197437
#        208080
#        219727
#        233700
#        245737
#
# Disc length: 3435 seconds
#
# Revision: 9
# Processed by: cddbd v1.5.2PL0 Copyright (c) Steve Scherf et al.
# Submitted via: ExactAudioCopy v1.0b1
#
DISCID=230d6914
DTITLE=Various Artist - Living The Blues Vol. 5 1960-1964 Blues Class
DTITLE=ics
DYEAR=1996
DGENRE=Blues
TTITLE0=Freddy King - Hide Away
TTITLE1=Jimmy Reed - Hush Hush
TTITLE2=Bobby Bland - I Pity The Fool
TTITLE3=Muddy Waters - You Shook Me
TTITLE4=B.B. King - Sweet 16 (Pt. 1)
TTITLE5=Slim Harpo - Rainin' In My Heart
TTITLE6=Etta James - Something's Got A Hold On Me
TTITLE7=Little Johnny Taylor - Part Time Love
TTITLE8=Howlin' Wolf - Little Red Rooster
TTITLE9=Albert King - Don't Throw Your Love On Me So Strong
TTITLE10=Bobby Parker - Watch Your Step
TTITLE11=Johnny Guitar Watson - Cuttin' In
TTITLE12=Rosco Gordon - Just A Little Bit
TTITLE13=Bobby Bland - Stormy Monday Blues
TTITLE14=Earl King - Come On (Pt. 1)
TTITLE15=Buddy Guy - The First Time I Met The Blues
TTITLE16=Elmore James - Shake Your Moneymaker
TTITLE17=Freddy King - Have You Ever Loved A Woman
TTITLE18=Little Junior Parker - In The Dark
TTITLE19=Earl Hooker - Blue Guitar
EXTD=YEAR: 1996
EXTT0=
EXTT1=
EXTT2=
EXTT3=
EXTT4=
EXTT5=
EXTT6=
EXTT7=
EXTT8=
EXTT9=
EXTT10=
EXTT11=
EXTT12=
EXTT13=
EXTT14=
EXTT15=
EXTT16=
EXTT17=
EXTT18=
EXTT19=
PLAYORDER=
